<svg width="43" height="54" viewBox="0 0 43 54" fill="none" xmlns="http://www.w3.org/2000/svg">
<path d="M31.5 49.4487C31.4809 45.933 32.4983 42.4895 34.425 39.5487C34.2469 38.9276 34.1709 38.2817 34.2 37.6362V35.9487C36.4967 33.8304 38.1367 31.097 38.925 28.0737C41.7375 28.0737 42.3 22.3362 42.3 21.5487C42.3 20.7612 42.4125 17.2737 39.6 17.2737C45.675 2.76121 29.7 -4.88879 17.775 3.43621C12.825 3.43621 12.4875 10.0737 14.2875 17.2737C11.475 17.2737 11.5875 20.6487 11.5875 21.5487C11.5875 22.4487 12.2625 28.0737 14.9625 28.0737C15.7567 31.0946 17.3958 33.8264 19.6875 35.9487V37.7487C19.6875 39.5487 19.6875 42.2487 10.575 44.0487C1.4625 45.8487 0 53.9487 0 53.9487H32.0625C31.6848 52.4786 31.4958 50.9665 31.5 49.4487Z" fill="#10375C"/>
</svg>
